<svg xmlns="http://www.w3.org/2000/svg" width="1200" height="860" viewBox="0 0 1200 860" fill="none">
  <defs>
    <linearGradient id="bg" x1="114" y1="54" x2="1080" y2="796" gradientUnits="userSpaceOnUse">
      <stop offset="0" stop-color="#F5FBEF"/>
      <stop offset="1" stop-color="#E7F2FF"/>
    </linearGradient>
    <linearGradient id="blob" x1="768" y1="130" x2="1014" y2="514" gradientUnits="userSpaceOnUse">
      <stop offset="0" stop-color="#6FCF75"/>
      <stop offset="1" stop-color="#4A89D3"/>
    </linearGradient>
    <filter id="shadow" x="0" y="0" width="1200" height="860" filterUnits="userSpaceOnUse" color-interpolation-filters="sRGB">
      <feDropShadow dx="0" dy="20" stdDeviation="22" flood-color="#35524A" flood-opacity="0.16"/>
    </filter>
  </defs>

  <rect x="36" y="36" width="1128" height="788" rx="44" fill="url(#bg)"/>
  <circle cx="952" cy="228" r="174" fill="url(#blob)" opacity="0.22"/>
  <circle cx="254" cy="734" r="148" fill="#69BC53" opacity="0.16"/>

  <g filter="url(#shadow)">
    <rect x="132" y="174" width="934" height="536" rx="30" fill="white"/>
  </g>

  <rect x="182" y="220" width="842" height="34" rx="12" fill="#EFF5F9"/>
  <circle cx="208" cy="237" r="7" fill="#F27878"/>
  <circle cx="230" cy="237" r="7" fill="#F4B457"/>
  <circle cx="252" cy="237" r="7" fill="#76C46A"/>

  <rect x="220" y="294" width="360" height="250" rx="22" fill="#F7FAF5" stroke="#DAE8D0"/>
  <rect x="250" y="328" width="300" height="16" rx="8" fill="#D5E6CA"/>
  <rect x="250" y="358" width="240" height="14" rx="7" fill="#E3ECD8"/>
  <rect x="250" y="384" width="276" height="14" rx="7" fill="#E3ECD8"/>
  <rect x="250" y="410" width="210" height="14" rx="7" fill="#E3ECD8"/>
  <rect x="250" y="452" width="154" height="42" rx="14" fill="#64AD31"/>

  <rect x="620" y="276" width="364" height="362" rx="26" fill="#F3F8FF" stroke="#D5E3F5"/>

  <ellipse cx="718" cy="546" rx="66" ry="22" fill="#CBD7EA" opacity="0.62"/>
  <ellipse cx="874" cy="546" rx="68" ry="23" fill="#CBD7EA" opacity="0.62"/>

  <circle cx="716" cy="398" r="42" fill="#FCCDA4"/>
  <rect x="678" y="438" width="76" height="92" rx="20" fill="#2F7F4A"/>
  <rect x="670" y="466" width="92" height="34" rx="16" fill="#236339"/>
  <rect x="684" y="374" width="64" height="28" rx="14" fill="#2A2A2A"/>

  <circle cx="876" cy="388" r="40" fill="#FFD6B1"/>
  <rect x="840" y="428" width="72" height="102" rx="22" fill="#4A89D3"/>
  <rect x="828" y="464" width="98" height="34" rx="16" fill="#356EBA"/>
  <rect x="846" y="366" width="60" height="24" rx="12" fill="#352A28"/>

  <rect x="756" y="448" width="72" height="126" rx="15" fill="#233247"/>
  <rect x="764" y="458" width="56" height="104" rx="10" fill="#0C1826"/>
  <circle cx="792" cy="546" r="4" fill="#8DB3E2"/>

  <path d="M1076 624C1028 644 996 658 946 650" stroke="#6CB45A" stroke-width="10" stroke-linecap="round"/>
  <path d="M946 650C930 622 926 600 934 570" stroke="#6CB45A" stroke-width="10" stroke-linecap="round"/>
  <path d="M924 620C888 608 874 592 860 564" stroke="#6CB45A" stroke-width="10" stroke-linecap="round"/>
</svg>
