<svg xmlns="http://www.w3.org/2000/svg" width="1080" height="760" viewBox="0 0 1080 760" fill="none">
  <defs>
    <linearGradient id="paper" x1="108" y1="64" x2="952" y2="698" gradientUnits="userSpaceOnUse">
      <stop offset="0" stop-color="#FFFFFF"/>
      <stop offset="1" stop-color="#F5FBF0"/>
    </linearGradient>
    <linearGradient id="line" x1="214" y1="156" x2="214" y2="626" gradientUnits="userSpaceOnUse">
      <stop offset="0" stop-color="#65AE33"/>
      <stop offset="1" stop-color="#4A89D3"/>
    </linearGradient>
  </defs>

  <rect x="40" y="40" width="1000" height="680" rx="36" fill="#EEF6E8"/>
  <rect x="80" y="82" width="920" height="596" rx="28" fill="url(#paper)"/>

  <path d="M214 156V626" stroke="url(#line)" stroke-width="10" stroke-linecap="round"/>

  <circle cx="214" cy="188" r="18" fill="#64AD31"/>
  <circle cx="214" cy="312" r="18" fill="#64AD31"/>
  <circle cx="214" cy="436" r="18" fill="#5C9A79"/>
  <circle cx="214" cy="560" r="18" fill="#4A89D3"/>

  <rect x="264" y="146" width="664" height="84" rx="18" fill="#F8FCF5" stroke="#D9E8CF"/>
  <rect x="264" y="270" width="664" height="84" rx="18" fill="#F8FCF5" stroke="#D9E8CF"/>
  <rect x="264" y="394" width="664" height="84" rx="18" fill="#F8FCF5" stroke="#D9E8CF"/>
  <rect x="264" y="518" width="664" height="84" rx="18" fill="#F3F8FF" stroke="#D4E3F6"/>

  <rect x="298" y="170" width="112" height="12" rx="6" fill="#9AB981"/>
  <rect x="298" y="191" width="420" height="10" rx="5" fill="#D6E3CC"/>

  <rect x="298" y="294" width="124" height="12" rx="6" fill="#9AB981"/>
  <rect x="298" y="315" width="442" height="10" rx="5" fill="#D6E3CC"/>

  <rect x="298" y="418" width="140" height="12" rx="6" fill="#6B9F89"/>
  <rect x="298" y="439" width="436" height="10" rx="5" fill="#D6E3CC"/>

  <rect x="298" y="542" width="132" height="12" rx="6" fill="#4A89D3"/>
  <rect x="298" y="563" width="452" height="10" rx="5" fill="#D1E1F4"/>

  <circle cx="868" cy="188" r="20" fill="#DCECCD"/>
  <circle cx="868" cy="312" r="20" fill="#DCECCD"/>
  <circle cx="868" cy="436" r="20" fill="#D3E7DE"/>
  <circle cx="868" cy="560" r="20" fill="#D4E4F8"/>

  <path d="M878 560L888 570L906 550" stroke="#4A89D3" stroke-width="4" stroke-linecap="round" stroke-linejoin="round"/>
</svg>
