<svg width="689" height="159" viewBox="0 0 689 159" fill="none" xmlns="http://www.w3.org/2000/svg">
<path d="M151.428 30V121H131.053V30H151.428ZM205.803 30L170.178 75.5L149.428 98L145.74 79.0625L159.428 59.4375L180.803 30H205.803ZM182.178 121L157.053 79.4375L172.553 67.375L206.303 121H182.178ZM290.393 73.5V77.5625C290.393 84.4792 289.434 90.6875 287.518 96.1875C285.643 101.688 282.955 106.375 279.455 110.25C275.997 114.125 271.872 117.104 267.08 119.188C262.33 121.229 257.059 122.25 251.268 122.25C245.476 122.25 240.184 121.229 235.393 119.188C230.601 117.104 226.434 114.125 222.893 110.25C219.393 106.375 216.684 101.688 214.768 96.1875C212.851 90.6875 211.893 84.4792 211.893 77.5625V73.5C211.893 66.5833 212.851 60.375 214.768 54.875C216.684 49.3333 219.372 44.625 222.83 40.75C226.33 36.875 230.476 33.9167 235.268 31.875C240.059 29.7917 245.351 28.75 251.143 28.75C256.934 28.75 262.226 29.7917 267.018 31.875C271.809 33.9167 275.934 36.875 279.393 40.75C282.893 44.625 285.601 49.3333 287.518 54.875C289.434 60.375 290.393 66.5833 290.393 73.5ZM269.83 77.5625V73.375C269.83 68.75 269.413 64.6667 268.58 61.125C267.747 57.5417 266.538 54.5417 264.955 52.125C263.372 49.7083 261.413 47.8958 259.08 46.6875C256.747 45.4375 254.101 44.8125 251.143 44.8125C248.059 44.8125 245.372 45.4375 243.08 46.6875C240.788 47.8958 238.851 49.7083 237.268 52.125C235.726 54.5417 234.538 57.5417 233.705 61.125C232.913 64.6667 232.518 68.75 232.518 73.375V77.5625C232.518 82.1458 232.913 86.2292 233.705 89.8125C234.538 93.3542 235.747 96.3542 237.33 98.8125C238.913 101.271 240.851 103.125 243.143 104.375C245.476 105.625 248.184 106.25 251.268 106.25C254.226 106.25 256.851 105.625 259.143 104.375C261.476 103.125 263.434 101.271 265.018 98.8125C266.601 96.3542 267.788 93.3542 268.58 89.8125C269.413 86.2292 269.83 82.1458 269.83 77.5625ZM342.607 89.375H319.732V73.5625H342.607C345.982 73.5625 348.691 73 350.732 71.875C352.816 70.75 354.337 69.2083 355.295 67.25C356.295 65.25 356.795 63 356.795 60.5C356.795 57.9167 356.295 55.5208 355.295 53.3125C354.337 51.0625 352.816 49.25 350.732 47.875C348.691 46.5 345.982 45.8125 342.607 45.8125H327.107V121H306.732V30H342.607C349.857 30 356.066 31.3125 361.232 33.9375C366.441 36.5625 370.42 40.1667 373.17 44.75C375.962 49.2917 377.357 54.5 377.357 60.375C377.357 66.25 375.962 71.3542 373.17 75.6875C370.42 80.0208 366.441 83.3958 361.232 85.8125C356.066 88.1875 349.857 89.375 342.607 89.375ZM452.948 105.25V121H407.01V105.25H452.948ZM413.948 30V121H393.573V30H413.948Z" fill="white"/>
<path d="M490.098 30V121H469.785V30H490.098ZM585.438 30V121H565.125L530.75 62.1875V121H510.375V30H530.75L565.188 88.8125V30H585.438ZM677.652 72.9375V109.625C676.152 111.333 673.861 113.167 670.777 115.125C667.736 117.083 663.84 118.771 659.09 120.188C654.34 121.562 648.673 122.25 642.09 122.25C636.132 122.25 630.715 121.292 625.84 119.375C620.965 117.417 616.777 114.562 613.277 110.812C609.777 107.021 607.069 102.396 605.152 96.9375C603.277 91.4792 602.34 85.2292 602.34 78.1875V72.8125C602.34 65.7708 603.277 59.5208 605.152 54.0625C607.027 48.6042 609.673 44 613.09 40.25C616.507 36.4583 620.569 33.5833 625.277 31.625C629.986 29.6667 635.194 28.6875 640.902 28.6875C649.027 28.6875 655.673 30 660.84 32.625C666.007 35.2083 669.923 38.7917 672.59 43.375C675.298 47.9583 676.965 53.2292 677.59 59.1875H657.965C657.548 56.1458 656.715 53.5208 655.465 51.3125C654.257 49.1042 652.527 47.4167 650.277 46.25C648.027 45.0417 645.111 44.4375 641.527 44.4375C638.652 44.4375 636.048 45.0417 633.715 46.25C631.423 47.4167 629.486 49.1875 627.902 51.5625C626.319 53.9375 625.111 56.8958 624.277 60.4375C623.444 63.9375 623.027 68.0208 623.027 72.6875V78.1875C623.027 82.8542 623.444 86.9583 624.277 90.5C625.152 94.0417 626.423 97 628.09 99.375C629.757 101.708 631.861 103.479 634.402 104.688C636.986 105.896 639.986 106.5 643.402 106.5C646.069 106.5 648.319 106.292 650.152 105.875C651.986 105.417 653.486 104.854 654.652 104.188C655.819 103.479 656.694 102.833 657.277 102.25V87.125H641.09V72.9375H677.652Z" fill="white"/>
<path d="M48.9375 97C48.9375 95.4583 48.7083 94.0833 48.25 92.875C47.7917 91.625 46.9583 90.4792 45.75 89.4375C44.5417 88.3958 42.8333 87.3542 40.625 86.3125C38.4167 85.2292 35.5208 84.125 31.9375 83C27.8542 81.6667 23.9583 80.1667 20.25 78.5C16.5833 76.7917 13.3125 74.8125 10.4375 72.5625C7.5625 70.3125 5.29167 67.6875 3.625 64.6875C2 61.6875 1.1875 58.1875 1.1875 54.1875C1.1875 50.3125 2.04167 46.8125 3.75 43.6875C5.45833 40.5625 7.85417 37.8958 10.9375 35.6875C14.0208 33.4375 17.6458 31.7292 21.8125 30.5625C25.9792 29.3542 30.5625 28.75 35.5625 28.75C42.2292 28.75 48.0833 29.9375 53.125 32.3125C58.2083 34.6458 62.1667 37.9375 65 42.1875C67.8333 46.3958 69.25 51.2917 69.25 56.875H49C49 54.4167 48.4792 52.25 47.4375 50.375C46.4375 48.4583 44.8958 46.9583 42.8125 45.875C40.7708 44.7917 38.2083 44.25 35.125 44.25C32.125 44.25 29.6042 44.7083 27.5625 45.625C25.5625 46.5 24.0417 47.7083 23 49.25C22 50.7917 21.5 52.4792 21.5 54.3125C21.5 55.7708 21.875 57.1042 22.625 58.3125C23.4167 59.4792 24.5417 60.5833 26 61.625C27.5 62.625 29.3333 63.5833 31.5 64.5C33.6667 65.4167 36.1458 66.2917 38.9375 67.125C43.8125 68.6667 48.125 70.375 51.875 72.25C55.6667 74.125 58.8542 76.25 61.4375 78.625C64.0208 81 65.9583 83.6875 67.25 86.6875C68.5833 89.6875 69.25 93.0833 69.25 96.875C69.25 100.917 68.4583 104.5 66.875 107.625C65.3333 110.75 63.0833 113.417 60.125 115.625C57.2083 117.792 53.7083 119.438 49.625 120.562C45.5417 121.688 40.9792 122.25 35.9375 122.25C31.3542 122.25 26.8333 121.667 22.375 120.5C17.9167 119.292 13.875 117.458 10.25 115C6.66667 112.542 3.79167 109.417 1.625 105.625C-0.5 101.792 -1.5625 97.25 -1.5625 92H18.8125C18.8125 94.75 19.2083 97.0833 20 99C20.7917 100.875 21.9167 102.396 23.375 103.562C24.875 104.729 26.6875 105.562 28.8125 106.062C30.9375 106.562 33.3125 106.812 35.9375 106.812C38.9792 106.812 41.4375 106.396 43.3125 105.562C45.2292 104.688 46.6458 103.5 47.5625 102C48.4792 100.5 48.9375 98.8333 48.9375 97Z" fill="white"/>
<line x1="98.498" y1="30.582" x2="98.498" y2="121" stroke="white" stroke-width="16"/>
<path d="M97.8873 0L114.759 35.9011H81.0154L97.8873 0Z" fill="#72B73E"/>
<path d="M98.5593 14.626L121.831 62.4941H75.2876L98.5593 14.626Z" fill="#72B73E"/>
<path d="M99.2308 42.5498L125.411 96.4014H73.0502L99.2308 42.5498Z" fill="#72B73E"/>
<path d="M290.141 115.889C293.575 117.257 295.238 118.782 294.972 120.318C294.706 121.855 292.52 123.352 288.622 124.667C284.723 125.982 279.243 127.07 272.704 127.829C266.165 128.587 258.785 128.99 251.267 129C243.75 129.009 236.346 128.624 229.762 127.882C223.179 127.14 217.634 126.065 213.658 124.76C209.682 123.455 207.407 121.964 207.05 120.428C206.692 118.892 208.265 117.363 211.618 115.986L230.446 117.905C228.697 118.624 227.876 119.422 228.062 120.223C228.249 121.025 229.436 121.803 231.511 122.484C233.586 123.165 236.48 123.726 239.916 124.114C243.352 124.501 247.216 124.702 251.139 124.697C255.063 124.692 258.915 124.482 262.327 124.086C265.74 123.69 268.6 123.122 270.635 122.436C272.669 121.75 273.81 120.968 273.949 120.166C274.088 119.364 273.22 118.568 271.428 117.854L290.141 115.889Z" fill="#32C51C"/>
<path d="M638.407 54.7819C636.597 53.4843 634.065 54.3466 634.006 56.5727C633.997 56.9159 633.998 57.2604 634.011 57.605C634.082 59.4816 634.479 61.3003 635.165 62.8878C635.851 64.4753 636.802 65.7786 637.929 66.6733C639.056 67.5681 640.32 68.0245 641.602 67.999C642.883 67.9735 644.138 67.4669 645.248 66.5277C646.358 65.5884 647.286 64.2477 647.942 62.6335C648.598 61.0193 648.961 59.1855 648.997 57.3068C649.003 56.9955 649 56.6847 648.988 56.3752C648.9 54.1194 646.312 53.3089 644.521 54.6829L643.318 55.6053C642.889 55.9348 642.748 56.5094 642.738 57.0507V57.0507C642.732 57.3609 642.672 57.6637 642.564 57.9303C642.455 58.1969 642.302 58.4183 642.119 58.5734C641.936 58.7285 641.728 58.8121 641.517 58.8163C641.305 58.8205 641.096 58.7452 640.91 58.5974C640.724 58.4497 640.567 58.2344 640.454 57.9723C640.341 57.7101 640.275 57.4098 640.263 57.0999V57.0999C640.243 56.5585 640.087 55.9869 639.647 55.6712L638.407 54.7819Z" fill="#32C51C"/>
</svg>
