<svg width="680" height="149" viewBox="0 0 680 149" fill="none" xmlns="http://www.w3.org/2000/svg">
<g clip-path="url(#clip0_149_16)">
<path d="M151.428 43V134H131.053V43H151.428ZM205.803 43L170.178 88.5L149.428 111L145.74 92.0625L159.428 72.4375L180.803 43H205.803ZM182.178 134L157.053 92.4375L172.553 80.375L206.303 134H182.178ZM290.393 86.5V90.5625C290.393 97.4792 289.434 103.688 287.518 109.188C285.643 114.688 282.955 119.375 279.455 123.25C275.997 127.125 271.872 130.104 267.08 132.188C262.33 134.229 257.059 135.25 251.268 135.25C245.476 135.25 240.184 134.229 235.393 132.188C230.601 130.104 226.434 127.125 222.893 123.25C219.393 119.375 216.684 114.688 214.768 109.188C212.851 103.688 211.893 97.4792 211.893 90.5625V86.5C211.893 79.5833 212.851 73.375 214.768 67.875C216.684 62.3333 219.372 57.625 222.83 53.75C226.33 49.875 230.476 46.9167 235.268 44.875C240.059 42.7917 245.351 41.75 251.143 41.75C256.934 41.75 262.226 42.7917 267.018 44.875C271.809 46.9167 275.934 49.875 279.393 53.75C282.893 57.625 285.601 62.3333 287.518 67.875C289.434 73.375 290.393 79.5833 290.393 86.5ZM269.83 90.5625V86.375C269.83 81.75 269.413 77.6667 268.58 74.125C267.747 70.5417 266.538 67.5417 264.955 65.125C263.372 62.7083 261.413 60.8958 259.08 59.6875C256.747 58.4375 254.101 57.8125 251.143 57.8125C248.059 57.8125 245.372 58.4375 243.08 59.6875C240.788 60.8958 238.851 62.7083 237.268 65.125C235.726 67.5417 234.538 70.5417 233.705 74.125C232.913 77.6667 232.518 81.75 232.518 86.375V90.5625C232.518 95.1458 232.913 99.2292 233.705 102.812C234.538 106.354 235.747 109.354 237.33 111.812C238.913 114.271 240.851 116.125 243.143 117.375C245.476 118.625 248.184 119.25 251.268 119.25C254.226 119.25 256.851 118.625 259.143 117.375C261.476 116.125 263.434 114.271 265.018 111.812C266.601 109.354 267.788 106.354 268.58 102.812C269.413 99.2292 269.83 95.1458 269.83 90.5625ZM342.607 102.375H319.732V86.5625H342.607C345.982 86.5625 348.691 86 350.732 84.875C352.816 83.75 354.337 82.2083 355.295 80.25C356.295 78.25 356.795 76 356.795 73.5C356.795 70.9167 356.295 68.5208 355.295 66.3125C354.337 64.0625 352.816 62.25 350.732 60.875C348.691 59.5 345.982 58.8125 342.607 58.8125H327.107V134H306.732V43H342.607C349.857 43 356.066 44.3125 361.232 46.9375C366.441 49.5625 370.42 53.1667 373.17 57.75C375.962 62.2917 377.357 67.5 377.357 73.375C377.357 79.25 375.962 84.3542 373.17 88.6875C370.42 93.0208 366.441 96.3958 361.232 98.8125C356.066 101.188 349.857 102.375 342.607 102.375ZM452.948 118.25V134H407.01V118.25H452.948ZM413.948 43V134H393.573V43H413.948Z" fill="white"/>
<path d="M490.098 43V134H469.785V43H490.098ZM585.438 43V134H565.125L530.75 75.1875V134H510.375V43H530.75L565.188 101.812V43H585.438ZM677.652 85.9375V122.625C676.152 124.333 673.861 126.167 670.777 128.125C667.736 130.083 663.84 131.771 659.09 133.188C654.34 134.562 648.673 135.25 642.09 135.25C636.132 135.25 630.715 134.292 625.84 132.375C620.965 130.417 616.777 127.562 613.277 123.812C609.777 120.021 607.069 115.396 605.152 109.938C603.277 104.479 602.34 98.2292 602.34 91.1875V85.8125C602.34 78.7708 603.277 72.5208 605.152 67.0625C607.027 61.6042 609.673 57 613.09 53.25C616.507 49.4583 620.569 46.5833 625.277 44.625C629.986 42.6667 635.194 41.6875 640.902 41.6875C649.027 41.6875 655.673 43 660.84 45.625C666.007 48.2083 669.923 51.7917 672.59 56.375C675.298 60.9583 676.965 66.2292 677.59 72.1875H657.965C657.548 69.1458 656.715 66.5208 655.465 64.3125C654.257 62.1042 652.527 60.4167 650.277 59.25C648.027 58.0417 645.111 57.4375 641.527 57.4375C638.652 57.4375 636.048 58.0417 633.715 59.25C631.423 60.4167 629.486 62.1875 627.902 64.5625C626.319 66.9375 625.111 69.8958 624.277 73.4375C623.444 76.9375 623.027 81.0208 623.027 85.6875V91.1875C623.027 95.8542 623.444 99.9583 624.277 103.5C625.152 107.042 626.423 110 628.09 112.375C629.757 114.708 631.861 116.479 634.402 117.688C636.986 118.896 639.986 119.5 643.402 119.5C646.069 119.5 648.319 119.292 650.152 118.875C651.986 118.417 653.486 117.854 654.652 117.188C655.819 116.479 656.694 115.833 657.277 115.25V100.125H641.09V85.9375H677.652Z" fill="white"/>
<path d="M48.9375 110C48.9375 108.458 48.7083 107.083 48.25 105.875C47.7917 104.625 46.9583 103.479 45.75 102.438C44.5417 101.396 42.8333 100.354 40.625 99.3125C38.4167 98.2292 35.5208 97.125 31.9375 96C27.8542 94.6667 23.9583 93.1667 20.25 91.5C16.5833 89.7917 13.3125 87.8125 10.4375 85.5625C7.5625 83.3125 5.29167 80.6875 3.625 77.6875C2 74.6875 1.1875 71.1875 1.1875 67.1875C1.1875 63.3125 2.04167 59.8125 3.75 56.6875C5.45833 53.5625 7.85417 50.8958 10.9375 48.6875C14.0208 46.4375 17.6458 44.7292 21.8125 43.5625C25.9792 42.3542 30.5625 41.75 35.5625 41.75C42.2292 41.75 48.0833 42.9375 53.125 45.3125C58.2083 47.6458 62.1667 50.9375 65 55.1875C67.8333 59.3958 69.25 64.2917 69.25 69.875H49C49 67.4167 48.4792 65.25 47.4375 63.375C46.4375 61.4583 44.8958 59.9583 42.8125 58.875C40.7708 57.7917 38.2083 57.25 35.125 57.25C32.125 57.25 29.6042 57.7083 27.5625 58.625C25.5625 59.5 24.0417 60.7083 23 62.25C22 63.7917 21.5 65.4792 21.5 67.3125C21.5 68.7708 21.875 70.1042 22.625 71.3125C23.4167 72.4792 24.5417 73.5833 26 74.625C27.5 75.625 29.3333 76.5833 31.5 77.5C33.6667 78.4167 36.1458 79.2917 38.9375 80.125C43.8125 81.6667 48.125 83.375 51.875 85.25C55.6667 87.125 58.8542 89.25 61.4375 91.625C64.0208 94 65.9583 96.6875 67.25 99.6875C68.5833 102.688 69.25 106.083 69.25 109.875C69.25 113.917 68.4583 117.5 66.875 120.625C65.3333 123.75 63.0833 126.417 60.125 128.625C57.2083 130.792 53.7083 132.438 49.625 133.562C45.5417 134.688 40.9792 135.25 35.9375 135.25C31.3542 135.25 26.8333 134.667 22.375 133.5C17.9167 132.292 13.875 130.458 10.25 128C6.66667 125.542 3.79167 122.417 1.625 118.625C-0.5 114.792 -1.5625 110.25 -1.5625 105H18.8125C18.8125 107.75 19.2083 110.083 20 112C20.7917 113.875 21.9167 115.396 23.375 116.562C24.875 117.729 26.6875 118.562 28.8125 119.062C30.9375 119.562 33.3125 119.812 35.9375 119.812C38.9792 119.812 41.4375 119.396 43.3125 118.562C45.2292 117.688 46.6458 116.5 47.5625 115C48.4792 113.5 48.9375 111.833 48.9375 110Z" fill="white"/>
<line x1="98.498" y1="43.582" x2="98.498" y2="134" stroke="white" stroke-width="16"/>
<path d="M97.8873 13L114.759 48.9011H81.0154L97.8873 13Z" fill="#72B73E"/>
<path d="M98.5593 27.626L121.831 75.4941H75.2876L98.5593 27.626Z" fill="#72B73E"/>
<path d="M99.2308 55.5498L125.411 109.401H73.0502L99.2308 55.5498Z" fill="#72B73E"/>
<path d="M290.141 128.889C293.575 130.257 295.238 131.782 294.972 133.318C294.706 134.855 292.52 136.352 288.622 137.667C284.723 138.982 279.243 140.07 272.704 140.829C266.165 141.587 258.785 141.99 251.267 142C243.75 142.009 236.346 141.624 229.762 140.882C223.179 140.14 217.634 139.065 213.658 137.76C209.682 136.455 207.407 134.964 207.05 133.428C206.692 131.892 208.265 130.363 211.618 128.986L230.446 130.905C228.697 131.624 227.876 132.422 228.062 133.223C228.249 134.025 229.436 134.803 231.511 135.484C233.586 136.165 236.48 136.726 239.916 137.114C243.352 137.501 247.216 137.702 251.139 137.697C255.063 137.692 258.915 137.482 262.327 137.086C265.74 136.69 268.6 136.122 270.635 135.436C272.669 134.75 273.81 133.968 273.949 133.166C274.088 132.364 273.22 131.568 271.428 130.854L290.141 128.889Z" fill="#32C51C"/>
<path d="M638.407 67.7819C636.597 66.4843 634.065 67.3466 634.006 69.5727C633.997 69.9159 633.998 70.2604 634.011 70.605C634.082 72.4816 634.479 74.3003 635.165 75.8878C635.851 77.4753 636.802 78.7786 637.929 79.6733C639.056 80.5681 640.32 81.0245 641.602 80.999C642.883 80.9735 644.138 80.4669 645.248 79.5277C646.358 78.5884 647.286 77.2477 647.942 75.6335C648.598 74.0193 648.961 72.1855 648.997 70.3068C649.003 69.9955 649 69.6847 648.988 69.3752C648.9 67.1194 646.312 66.3089 644.521 67.6829L643.318 68.6053C642.889 68.9348 642.748 69.5094 642.738 70.0507C642.732 70.3609 642.672 70.6637 642.564 70.9303C642.455 71.1969 642.302 71.4183 642.119 71.5734C641.936 71.7285 641.728 71.8121 641.517 71.8163C641.305 71.8205 641.096 71.7452 640.91 71.5974C640.724 71.4497 640.567 71.2344 640.454 70.9723C640.341 70.7101 640.275 70.4098 640.263 70.0999C640.243 69.5585 640.087 68.9869 639.647 68.6712L638.407 67.7819Z" fill="#32C51C"/>
</g>
<defs>
<clipPath id="clip0_149_16">
<rect width="680" height="149" fill="white"/>
</clipPath>
</defs>
</svg>
