<svg width="576" height="570" viewBox="0 0 576 570" fill="none" xmlns="http://www.w3.org/2000/svg">
<path d="M242.805 369.229C334.192 368.241 525.252 304.845 485.916 281.453C452.204 261.406 329.309 200.407 237.922 201.395C146.536 202.383 77.157 240.004 85.2144 288.901C93.2718 337.799 151.418 370.217 242.805 369.229Z" fill="#64AD31"/>
<path d="M88.0543 296.377C86.6856 290.792 85.3168 285.208 83.9481 279.623C84.2949 279.602 84.4456 279.606 84.6379 279.607C84.73 279.608 84.8214 279.609 84.9163 279.611C84.9627 279.611 85.0153 279.612 85.0583 279.613C85.0837 279.615 85.1095 279.616 85.1355 279.618C85.3437 279.63 85.5724 279.643 85.8272 279.656C86.433 279.681 86.7118 279.714 87.2064 279.743C88.2737 279.802 88.9217 279.868 89.9449 279.931C121.904 282.348 153.774 284.978 185.735 287.566C187.489 287.711 189.28 287.855 191 288C191 288 191 288 191 288C189.322 288.136 187.574 288.271 185.863 288.407C154.691 290.866 123.479 293.283 92.5039 295.913C91.5216 295.99 90.9062 296.064 89.9088 296.145C89.4518 296.185 89.1934 296.223 88.6709 296.267C88.4549 296.288 88.2728 296.309 88.1328 296.33C87.9832 296.349 87.6247 296.391 88.0543 296.377Z" fill="black"/>
</svg>
