<svg width="576" height="570" viewBox="0 0 576 570" fill="none" xmlns="http://www.w3.org/2000/svg">
<path d="M332.345 369.229C240.958 368.241 49.8979 304.845 89.234 281.453C122.946 261.406 245.841 200.407 337.228 201.395C428.614 202.383 497.993 240.004 489.935 288.901C481.878 337.799 423.732 370.217 332.345 369.229Z" fill="#64AD31"/>
<path d="M485.793 302.578C487.32 297.01 488.847 291.442 490.374 285.874C489.049 285.786 488.963 285.862 488.429 285.874C487.862 285.896 487.604 285.927 487.147 285.954C486.162 286.009 485.566 286.072 484.627 286.132C455.343 288.461 426.192 291.044 396.934 293.575C395.329 293.716 393.69 293.858 392.115 294C393.647 294.138 395.243 294.277 396.806 294.416C425.257 296.931 453.772 299.397 482 302.113C482.892 302.193 483.452 302.27 484.352 302.354C484.764 302.397 484.998 302.436 485.461 302.482C485.651 302.504 485.809 302.526 485.925 302.548C486.039 302.565 486.373 302.618 485.793 302.578Z" fill="black"/>
</svg>
