<svg width="459" height="507" viewBox="0 0 459 507" fill="none" xmlns="http://www.w3.org/2000/svg">
<path d="M169.14 337.75C252.381 322.143 416.54 233.543 376.878 218.526C342.887 205.656 220.917 169.764 137.677 185.371C54.437 200.978 -2.82382 246.475 12.3977 289.802C27.6192 333.129 85.9002 353.358 169.14 337.75Z" fill="#64AD31"/>
<path d="M10.9066 276.5C11.3635 281.953 11.8205 287.406 12.2775 292.859C13.0727 292.886 13.3848 292.848 13.7723 292.822C13.9566 292.807 14.1341 292.79 14.3151 292.772C14.4054 292.763 14.497 292.753 14.5888 292.743C14.6362 292.737 14.6839 292.73 14.732 292.724C15.1167 292.672 15.5304 292.613 15.9877 292.546C17.0732 292.393 17.5628 292.297 18.4328 292.156C20.3117 291.854 21.4366 291.635 23.2232 291.327C78.6712 281.001 133.536 269.846 188.668 258.835C191.69 258.227 194.778 257.607 197.741 257.007C197.741 257.007 197.741 257.007 197.741 257.007C194.693 257.338 191.52 257.687 188.412 258.027C131.811 264.175 75.1637 270.511 18.7036 275.91C16.9209 276.077 15.7806 276.157 13.9747 276.31C13.1476 276.376 12.6606 276.4 11.7273 276.468C11.3396 276.492 11.0139 276.507 10.7693 276.511C10.7388 276.512 10.7096 276.512 10.6817 276.513C10.6285 276.515 10.5799 276.517 10.5374 276.518C10.4525 276.52 10.3904 276.52 10.362 276.517C10.324 276.515 10.3181 276.485 10.9066 276.5Z" fill="black"/>
</svg>
