<svg width="1343" height="1954" viewBox="0 0 1343 1954" fill="none" xmlns="http://www.w3.org/2000/svg">
<path d="M74.3336 39.9998L74.3338 282.507C74.3338 293.551 83.2842 302.504 94.3274 302.507L706.191 302.701L1315.78 302.895C1326.82 302.898 1335.77 311.847 1335.77 322.888L1335.9 683.663C1335.9 694.661 1327.02 703.598 1316.03 703.67L98.2145 711.616C87.2414 711.688 78.3752 720.588 78.345 731.561L77.299 1111.51C77.2684 1122.63 86.3114 1131.64 97.4294 1131.57L1314.56 1123.63C1325.68 1123.55 1334.72 1132.56 1334.69 1143.68L1333.63 1529.05C1333.6 1540.03 1324.73 1548.93 1313.76 1549L95.9059 1556.94C84.9113 1557.02 76.0364 1565.95 76.0364 1576.94L76.0364 1914" stroke="black" stroke-width="14" stroke-miterlimit="5.4874"/>
<path d="M110.091 12.5514C108.88 11.6766 107.736 11.2393 106.66 11.2393C105.987 11.2393 105.448 11.4187 105.045 11.7776C104.641 12.1364 104.439 12.5626 104.439 13.0561C104.439 13.5271 104.652 13.9308 105.078 14.2673C105.527 14.6037 106.222 14.9963 107.164 15.4449C108.106 15.871 108.869 16.2636 109.452 16.6224C110.843 17.4748 111.538 18.6748 111.538 20.2224C111.538 21.1421 111.28 21.9832 110.764 22.7458C110.271 23.5084 109.564 24.114 108.645 24.5626C107.725 25.0112 106.57 25.2355 105.179 25.2355C103.789 25.2355 102.274 24.8879 100.637 24.1925L101.142 21.0299L101.512 20.7944C102.185 21.3776 102.914 21.8262 103.699 22.1402C104.506 22.4542 105.246 22.6112 105.919 22.6112C106.615 22.6112 107.164 22.4318 107.568 22.0729C107.972 21.714 108.174 21.2766 108.174 20.7607C108.174 20.2449 107.949 19.8187 107.501 19.4822C107.052 19.1458 106.346 18.7645 105.381 18.3383C104.439 17.8897 103.688 17.486 103.127 17.1271C101.759 16.2972 101.074 15.1084 101.074 13.5607C101.074 12.6187 101.321 11.7776 101.815 11.0374C102.331 10.2748 103.037 9.66916 103.934 9.22056C104.854 8.77196 105.942 8.55888 107.198 8.58131C108.454 8.60374 109.766 8.88411 111.134 9.42243L110.596 12.3495L110.091 12.5514ZM118.704 22.5103C119.22 22.5103 119.77 22.3757 120.353 22.1065L120.622 22.3757L120.285 24.3271C119.456 24.7757 118.592 25.0449 117.695 25.1346C115.429 24.9103 114.285 23.8112 114.263 21.8374L114.398 19.7178V15.3776H112.816L112.682 15.243L112.85 13.3925H114.33V11.4411L117.392 10.4654L117.628 10.6673L117.527 13.3925H120.555L120.656 13.5607L120.521 15.3776H117.493L117.358 21.0299C117.358 21.5682 117.448 21.9495 117.628 22.1738C117.829 22.3981 118.188 22.5103 118.704 22.5103ZM126.672 13.0561C128.175 13.0561 129.296 13.3477 130.037 13.9308C130.777 14.514 131.147 15.3215 131.147 16.3533C131.147 16.6449 131.091 17.5981 130.979 19.2131C130.979 19.2131 130.945 20.1327 130.878 21.972C130.878 22.2636 130.911 22.4654 130.979 22.5776C131.046 22.6673 131.181 22.7121 131.382 22.7121C131.584 22.7121 131.82 22.6785 132.089 22.6112L132.358 22.8131L132.022 24.5626C131.483 24.8991 130.878 25.1121 130.205 25.2019C129.128 25.1121 128.478 24.4953 128.253 23.3514H128.085C127.233 24.2486 126.369 24.8766 125.495 25.2355C124.283 25.2131 123.33 24.8879 122.635 24.2598C121.939 23.6318 121.592 22.7907 121.592 21.7364C121.592 20.0991 122.455 19.1121 124.182 18.7757L128.052 18.0692V17.0262C128.052 15.9271 127.536 15.3776 126.504 15.3776C125.472 15.3776 124.261 15.8598 122.87 16.8243L122.601 16.6897L122.231 14.4692C123.711 13.5271 125.192 13.0561 126.672 13.0561ZM125.36 20.3234C124.844 20.4355 124.586 20.7495 124.586 21.2654C124.586 22.2748 125.024 22.7794 125.898 22.7794C126.549 22.7794 127.244 22.3869 127.984 21.6019L128.052 19.7178L125.36 20.3234ZM140.919 13.2579C141.076 13.2804 141.289 13.3028 141.558 13.3252V16.3869L141.222 16.5215C140.93 16.4093 140.616 16.3533 140.28 16.3533C139.315 16.3533 138.429 16.9701 137.622 18.2037V19.8523L137.824 25H134.459L134.628 20.1551L134.493 13.4935L137.689 13.2243L137.656 15.5458H137.857C138.665 14.043 139.685 13.2804 140.919 13.2579ZM147.989 22.5103C148.505 22.5103 149.055 22.3757 149.638 22.1065L149.907 22.3757L149.571 24.3271C148.741 24.7757 147.877 25.0449 146.98 25.1346C144.715 24.9103 143.571 23.8112 143.548 21.8374L143.683 19.7178V15.3776H142.101L141.967 15.243L142.135 13.3925H143.615V11.4411L146.677 10.4654L146.913 10.6673L146.812 13.3925H149.84L149.941 13.5607L149.806 15.3776H146.778L146.644 21.0299C146.644 21.5682 146.733 21.9495 146.913 22.1738C147.115 22.3981 147.473 22.5103 147.989 22.5103Z" fill="black"/>
<path d="M19.7641 1943.44L19.5286 1946H9.33421L9.53608 1941.16L9.33421 1929.78H19.6295L19.8314 1930.05L19.5959 1932.61L15.6931 1932.47H12.766L12.6987 1936.38L15.5249 1936.44L18.1492 1936.38L18.351 1936.61L18.1155 1939.17L15.2557 1939.1L12.6651 1939.14L12.6314 1940.85L12.6987 1943.31L15.5585 1943.34L19.5623 1943.17L19.7641 1943.44ZM28.8937 1938.7C28.8937 1937.47 28.3666 1936.85 27.3124 1936.85C26.5498 1936.85 25.7423 1937.21 24.89 1937.93V1940.85L25.0582 1946H21.6937L21.8619 1941.16L21.7274 1934.49L24.9236 1934.22V1935.94H25.0918C26.0563 1935.09 27.0657 1934.48 28.1199 1934.12C29.3984 1934.12 30.3629 1934.41 31.0133 1935C31.6862 1935.58 32.0115 1936.41 31.989 1937.49L31.9217 1940.85L32.0563 1946H28.6918L28.8937 1938.7ZM44.7719 1942.97C44.7943 1943.26 44.8392 1943.47 44.9065 1943.58C44.9738 1943.67 45.1084 1943.71 45.3102 1943.71C45.5121 1943.71 45.7476 1943.68 46.0168 1943.61L46.2523 1943.81L45.9495 1945.56C45.4112 1945.9 44.7943 1946.11 44.099 1946.2C43.0224 1946.11 42.3383 1945.53 42.0467 1944.45H41.8448C41.0373 1945.21 40.1962 1945.79 39.3214 1946.17C37.6616 1946.17 36.3831 1945.65 35.4859 1944.62C34.5887 1943.57 34.1401 1942.07 34.1401 1940.15C34.1401 1938.22 34.656 1936.73 35.6878 1935.67C36.742 1934.62 38.1887 1934.09 40.028 1934.09C40.5214 1934.09 41.0598 1934.13 41.6429 1934.22L41.6093 1928.57L44.9401 1928.3L44.7046 1940.85L44.7719 1942.97ZM37.2691 1939.61C37.2691 1942.23 38.0654 1943.54 39.6579 1943.54C40.3757 1943.54 41.0598 1943.2 41.7102 1942.5L41.7439 1941.12L41.6766 1936.78C41.0261 1936.49 40.4093 1936.34 39.8261 1936.34C38.1214 1936.34 37.2691 1937.43 37.2691 1939.61Z" fill="black"/>
<rect x="58" width="33" height="33" fill="#3EB14A"/>
<rect x="60" y="1921" width="33" height="33" fill="#3EB14A"/>
<rect x="192.266" y="1081.86" width="96.5554" height="92.0058" rx="11" fill="#3EB14A"/>
<path d="M256.259 1113.11L255.302 1114.07L247.288 1113.11H236.88L236.641 1123.16L242.144 1124.36C247.327 1125.39 251.036 1127.07 253.269 1129.38C255.582 1131.69 256.738 1134.76 256.738 1138.59C256.738 1142.34 255.781 1145.69 253.867 1148.64C252.033 1151.51 249.361 1153.75 245.852 1155.34C242.343 1156.94 238.674 1157.73 234.846 1157.73C231.098 1157.73 227.509 1157.37 224.08 1156.66L223.362 1147.33L224.2 1146.49C228.187 1147.84 231.776 1148.52 234.966 1148.52C238.156 1148.52 240.708 1147.76 242.622 1146.25C244.616 1144.73 245.613 1142.86 245.613 1140.63C245.613 1138.31 244.895 1136.6 243.459 1135.48C242.024 1134.29 239.791 1133.41 236.76 1132.85L228.147 1131.3L227.31 1130.34L227.788 1104.74L229.224 1103.42L234.368 1103.66H247.527L256.738 1103.18L257.575 1103.9L256.259 1113.11Z" fill="white"/>
<rect x="192.266" y="657.86" width="96.5554" height="92.0058" rx="11" fill="#3EB14A"/>
<path d="M253.192 720.095L253.55 732.178L252.952 732.895L243.741 733.613L243.023 732.895L243.263 719.976H229.027L221.132 720.215L220.294 719.138V711.721L242.425 679.662H253.192L252.952 710.884H260.489L261.087 711.961L260.608 720.215L253.192 720.095ZM243.502 710.884V693.179H242.664L230.582 710.884H243.502Z" fill="white"/>
<rect x="839.267" y="657.86" width="96.5554" height="92.0058" rx="11" fill="#3EB14A"/>
<path d="M902.604 691.385C902.604 696.888 899.773 701.194 894.111 704.305V704.783C900.65 706.617 903.88 710.565 903.8 716.626C903.8 719.896 902.883 722.847 901.049 725.479C897.141 730.822 890.602 733.493 881.43 733.493C878.24 733.493 874.971 733.214 871.621 732.656L871.143 723.445L871.86 722.607C875.369 723.804 878.719 724.442 881.909 724.521C885.179 724.521 887.771 723.844 889.685 722.488C891.599 721.132 892.556 719.298 892.556 716.985C892.556 712.918 889.804 710.804 884.301 710.645H878.081L877.483 709.807L877.842 701.673L881.67 701.434C883.982 701.354 886.016 700.636 887.771 699.28C889.605 697.845 890.522 696.21 890.522 694.376C890.522 690.707 888.488 688.873 884.421 688.873C881.311 688.873 877.802 690.269 873.894 693.06H872.578L870.903 684.327C876.007 680.818 881.111 679.064 886.215 679.064C891.399 679.064 895.427 680.18 898.298 682.413C901.169 684.646 902.604 687.637 902.604 691.385Z" fill="white"/>
<rect x="839.267" y="251.86" width="96.5554" height="92.0058" rx="11" fill="#3EB14A"/>
<path d="M888.59 273.183C892.737 273.183 896.126 274.18 898.758 276.174C901.39 278.088 902.706 280.759 902.706 284.189C902.706 288.974 899.356 294.955 892.657 302.133L885.958 309.55L886.078 309.908H898.16L906.295 309.071L907.012 309.908L905.577 319.479L894.691 319H874.354L871.005 319.12L870.407 318.761V311.464L882.489 299.621C888.151 293.958 890.982 289.851 890.982 287.299C890.982 286.103 890.504 285.146 889.547 284.428C888.67 283.71 887.433 283.351 885.838 283.351C881.851 283.351 877.943 285.106 874.115 288.615H872.68L870.766 279.404C876.906 275.257 882.848 273.183 888.59 273.183Z" fill="white"/>
<rect x="192.266" y="251.86" width="96.5554" height="92.0058" rx="11" fill="#3EB14A"/>
<path d="M247.666 300.338L248.265 319H236.182L236.661 301.535V286.701L226.493 289.452L225.655 288.735V279.284L246.59 273.183L248.265 274.499L247.666 300.338Z" fill="white"/>
<rect x="851.267" y="1081.86" width="96.5554" height="92.0058" rx="11" fill="#3EB14A"/>
<path d="M904.755 1116.7C908.743 1116.7 912.052 1118.18 914.684 1121.13C917.396 1124.08 918.752 1127.51 918.752 1131.41C918.752 1135.24 917.994 1138.51 916.479 1141.22C915.043 1143.86 912.89 1145.97 910.019 1147.56C907.148 1149.16 903.718 1149.96 899.731 1149.96C893.829 1149.96 889.284 1148.16 886.094 1144.57C882.904 1140.99 881.309 1135.8 881.309 1129.02C881.309 1122.16 883.581 1115.82 888.127 1110C892.753 1104.1 899.213 1099.28 907.507 1095.53H908.105L916.239 1100.91V1101.99C910.019 1104.38 905.154 1106.85 901.645 1109.4C898.136 1111.88 895.624 1114.87 894.109 1118.38L894.826 1119.21C897.538 1117.54 900.847 1116.7 904.755 1116.7ZM900.329 1124.96C897.697 1125.03 895.026 1125.95 892.314 1127.71V1129.62C892.314 1133.85 892.912 1137 894.109 1139.07C895.305 1141.14 897.259 1142.18 899.97 1142.18C905.314 1142.18 907.985 1139.31 907.985 1133.57C907.985 1127.83 905.433 1124.96 900.329 1124.96Z" fill="white"/>
<rect x="851.267" y="1499.86" width="96.5554" height="92.0058" rx="11" fill="#3EB14A"/>
<path d="M912.628 1521.66L917.054 1521.42V1530.27L902.34 1562.45L897.316 1575.97L887.626 1573.22L886.908 1571.31L905.689 1531.59H890.856L882.841 1532.43L882.003 1531.35L882.841 1521.3L892.889 1521.66H912.628Z" fill="white"/>
<rect x="192.266" y="1499.86" width="96.5554" height="92.0058" rx="11" fill="#3EB14A"/>
<path d="M241.729 1513.65C246.833 1513.65 250.741 1514.84 253.452 1517.24C256.164 1519.55 257.52 1522.94 257.52 1527.4C257.52 1531.79 254.888 1535.66 249.624 1539.01V1539.61C252.495 1541.04 254.768 1542.72 256.443 1544.63C258.198 1546.46 259.075 1548.94 259.075 1552.05C259.075 1556.91 257.32 1560.78 253.811 1563.65C250.302 1566.44 245.717 1567.84 240.054 1567.84C234.472 1567.84 230.165 1566.6 227.135 1564.13C224.184 1561.58 222.708 1558.31 222.708 1554.32C222.708 1548.74 225.978 1544.43 232.518 1541.4V1540.92C227.095 1537.89 224.383 1533.94 224.383 1529.08C224.383 1524.13 225.978 1520.35 229.168 1517.71C232.438 1515 236.625 1513.65 241.729 1513.65ZM242.088 1536.14C246.155 1533.9 248.189 1531.23 248.189 1528.12C248.189 1526.21 247.591 1524.69 246.394 1523.58C245.198 1522.46 243.483 1521.9 241.25 1521.9C239.017 1521.9 237.263 1522.46 235.987 1523.58C234.791 1524.69 234.193 1526.25 234.193 1528.24C234.193 1530.16 234.87 1531.71 236.226 1532.91C237.582 1534.02 239.536 1535.1 242.088 1536.14ZM240.054 1544.51C237.662 1545.47 235.827 1546.54 234.551 1547.74C233.275 1548.94 232.637 1550.61 232.637 1552.76C232.637 1554.92 233.355 1556.63 234.791 1557.91C236.226 1559.18 238.26 1559.82 240.892 1559.82C243.523 1559.82 245.557 1559.18 246.993 1557.91C248.508 1556.63 249.265 1555 249.265 1553C249.265 1551.01 248.508 1549.41 246.993 1548.22C245.477 1547.02 243.164 1545.79 240.054 1544.51Z" fill="white"/>
</svg>
