<svg width="1343" height="1954" viewBox="0 0 1343 1954" fill="none" xmlns="http://www.w3.org/2000/svg">
<path d="M74.3336 39.9998L74.3338 282.507C74.3338 293.551 83.2842 302.504 94.3274 302.507L706.191 302.701L1315.78 302.895C1326.82 302.898 1335.77 311.847 1335.77 322.888L1335.9 683.663C1335.9 694.661 1327.02 703.598 1316.03 703.67L98.2145 711.616C87.2414 711.688 78.3752 720.588 78.345 731.561L77.299 1111.51C77.2684 1122.63 86.3114 1131.64 97.4294 1131.57L1314.56 1123.63C1325.68 1123.55 1334.72 1132.56 1334.69 1143.68L1333.63 1529.05C1333.6 1540.03 1324.73 1548.93 1313.76 1549L95.9059 1556.94C84.9113 1557.02 76.0364 1565.95 76.0364 1576.94L76.0364 1914" stroke="black" stroke-width="14" stroke-miterlimit="5.4874"/>
<path d="M110.091 12.5514C108.88 11.6766 107.736 11.2393 106.66 11.2393C105.987 11.2393 105.448 11.4187 105.045 11.7776C104.641 12.1364 104.439 12.5626 104.439 13.0561C104.439 13.5271 104.652 13.9308 105.078 14.2673C105.527 14.6037 106.222 14.9963 107.164 15.4449C108.106 15.871 108.869 16.2636 109.452 16.6224C110.843 17.4748 111.538 18.6748 111.538 20.2224C111.538 21.1421 111.28 21.9832 110.764 22.7458C110.271 23.5084 109.564 24.114 108.645 24.5626C107.725 25.0112 106.57 25.2355 105.179 25.2355C103.789 25.2355 102.274 24.8879 100.637 24.1925L101.142 21.0299L101.512 20.7944C102.185 21.3776 102.914 21.8262 103.699 22.1402C104.506 22.4542 105.246 22.6112 105.919 22.6112C106.615 22.6112 107.164 22.4318 107.568 22.0729C107.972 21.714 108.174 21.2766 108.174 20.7607C108.174 20.2449 107.949 19.8187 107.501 19.4822C107.052 19.1458 106.346 18.7645 105.381 18.3383C104.439 17.8897 103.688 17.486 103.127 17.1271C101.759 16.2972 101.074 15.1084 101.074 13.5607C101.074 12.6187 101.321 11.7776 101.815 11.0374C102.331 10.2748 103.037 9.66916 103.934 9.22056C104.854 8.77196 105.942 8.55888 107.198 8.58131C108.454 8.60374 109.766 8.88411 111.134 9.42243L110.596 12.3495L110.091 12.5514ZM118.704 22.5103C119.22 22.5103 119.77 22.3757 120.353 22.1065L120.622 22.3757L120.285 24.3271C119.456 24.7757 118.592 25.0449 117.695 25.1346C115.429 24.9103 114.285 23.8112 114.263 21.8374L114.398 19.7178V15.3776H112.816L112.682 15.243L112.85 13.3925H114.33V11.4411L117.392 10.4654L117.628 10.6673L117.527 13.3925H120.555L120.656 13.5607L120.521 15.3776H117.493L117.358 21.0299C117.358 21.5682 117.448 21.9495 117.628 22.1738C117.829 22.3981 118.188 22.5103 118.704 22.5103ZM126.672 13.0561C128.175 13.0561 129.296 13.3477 130.037 13.9308C130.777 14.514 131.147 15.3215 131.147 16.3533C131.147 16.6449 131.091 17.5981 130.979 19.2131C130.979 19.2131 130.945 20.1327 130.878 21.972C130.878 22.2636 130.911 22.4654 130.979 22.5776C131.046 22.6673 131.181 22.7121 131.382 22.7121C131.584 22.7121 131.82 22.6785 132.089 22.6112L132.358 22.8131L132.022 24.5626C131.483 24.8991 130.878 25.1121 130.205 25.2019C129.128 25.1121 128.478 24.4953 128.253 23.3514H128.085C127.233 24.2486 126.369 24.8766 125.495 25.2355C124.283 25.2131 123.33 24.8879 122.635 24.2598C121.939 23.6318 121.592 22.7907 121.592 21.7364C121.592 20.0991 122.455 19.1121 124.182 18.7757L128.052 18.0692V17.0262C128.052 15.9271 127.536 15.3776 126.504 15.3776C125.472 15.3776 124.261 15.8598 122.87 16.8243L122.601 16.6897L122.231 14.4692C123.711 13.5271 125.192 13.0561 126.672 13.0561ZM125.36 20.3234C124.844 20.4355 124.586 20.7495 124.586 21.2654C124.586 22.2748 125.024 22.7794 125.898 22.7794C126.549 22.7794 127.244 22.3869 127.984 21.6019L128.052 19.7178L125.36 20.3234ZM140.919 13.2579C141.076 13.2804 141.289 13.3028 141.558 13.3252V16.3869L141.222 16.5215C140.93 16.4093 140.616 16.3533 140.28 16.3533C139.315 16.3533 138.429 16.9701 137.622 18.2037V19.8523L137.824 25H134.459L134.628 20.1551L134.493 13.4935L137.689 13.2243L137.656 15.5458H137.857C138.665 14.043 139.685 13.2804 140.919 13.2579ZM147.989 22.5103C148.505 22.5103 149.055 22.3757 149.638 22.1065L149.907 22.3757L149.571 24.3271C148.741 24.7757 147.877 25.0449 146.98 25.1346C144.715 24.9103 143.571 23.8112 143.548 21.8374L143.683 19.7178V15.3776H142.101L141.967 15.243L142.135 13.3925H143.615V11.4411L146.677 10.4654L146.913 10.6673L146.812 13.3925H149.84L149.941 13.5607L149.806 15.3776H146.778L146.644 21.0299C146.644 21.5682 146.733 21.9495 146.913 22.1738C147.115 22.3981 147.473 22.5103 147.989 22.5103Z" fill="black"/>
<path d="M19.7641 1943.44L19.5286 1946H9.33421L9.53608 1941.16L9.33421 1929.78H19.6295L19.8314 1930.05L19.5959 1932.61L15.6931 1932.47H12.766L12.6987 1936.38L15.5249 1936.44L18.1492 1936.38L18.351 1936.61L18.1155 1939.17L15.2557 1939.1L12.6651 1939.14L12.6314 1940.85L12.6987 1943.31L15.5585 1943.34L19.5623 1943.17L19.7641 1943.44ZM28.8937 1938.7C28.8937 1937.47 28.3666 1936.85 27.3124 1936.85C26.5498 1936.85 25.7423 1937.21 24.89 1937.93V1940.85L25.0582 1946H21.6937L21.8619 1941.16L21.7274 1934.49L24.9236 1934.22V1935.94H25.0918C26.0563 1935.09 27.0657 1934.48 28.1199 1934.12C29.3984 1934.12 30.3629 1934.41 31.0133 1935C31.6862 1935.58 32.0115 1936.41 31.989 1937.49L31.9217 1940.85L32.0563 1946H28.6918L28.8937 1938.7ZM44.7719 1942.97C44.7943 1943.26 44.8392 1943.47 44.9065 1943.58C44.9738 1943.67 45.1084 1943.71 45.3102 1943.71C45.5121 1943.71 45.7476 1943.68 46.0168 1943.61L46.2523 1943.81L45.9495 1945.56C45.4112 1945.9 44.7943 1946.11 44.099 1946.2C43.0224 1946.11 42.3383 1945.53 42.0467 1944.45H41.8448C41.0373 1945.21 40.1962 1945.79 39.3214 1946.17C37.6616 1946.17 36.3831 1945.65 35.4859 1944.62C34.5887 1943.57 34.1401 1942.07 34.1401 1940.15C34.1401 1938.22 34.656 1936.73 35.6878 1935.67C36.742 1934.62 38.1887 1934.09 40.028 1934.09C40.5214 1934.09 41.0598 1934.13 41.6429 1934.22L41.6093 1928.57L44.9401 1928.3L44.7046 1940.85L44.7719 1942.97ZM37.2691 1939.61C37.2691 1942.23 38.0654 1943.54 39.6579 1943.54C40.3757 1943.54 41.0598 1943.2 41.7102 1942.5L41.7439 1941.12L41.6766 1936.78C41.0261 1936.49 40.4093 1936.34 39.8261 1936.34C38.1214 1936.34 37.2691 1937.43 37.2691 1939.61Z" fill="black"/>
<rect x="58" width="33" height="33" fill="#235335"/>
<rect x="60" y="1921" width="33" height="33" fill="#235335"/>
</svg>
